<mxfile host="Electron" modified="2024-06-04T08:16:19.615Z" agent="Mozilla/5.0 (Windows NT 10.0; Win64; x64) AppleWebKit/537.36 (KHTML, like Gecko) draw.io/21.6.8 Chrome/114.0.5735.289 Electron/25.5.0 Safari/537.36" etag="thFjU8eh6V_VvlHEKRYY" version="21.6.8" type="device">
  <diagram name="第 1 页" id="M43JbAPxSSRIWqo42tRJ">
    <mxGraphModel dx="2487" dy="1991" grid="1" gridSize="10" guides="1" tooltips="1" connect="1" arrows="1" fold="1" page="1" pageScale="1" pageWidth="827" pageHeight="1169" math="0" shadow="0">
      <root>
        <mxCell id="0" />
        <mxCell id="1" parent="0" />
        <mxCell id="BVbNrUToFaA7XdD0m5Om-4" value="" style="shape=image;verticalLabelPosition=bottom;labelBackgroundColor=default;verticalAlign=top;aspect=fixed;imageAspect=0;image=data:image/png,iVBORw0KGgoAAAANSUhEUgAAA54AAAHeCAYAAADzSNSiAAAgAElEQVR4nOzdd3RU1drH8W8qSWhJaKEIoRNAAgmEIhBAinQuTQVFEVFRBCzotSAWrkoVbCgWLiqiiCBIFQVCUykClxcBEQFpASSFkoTU9w9ISEibhDNzTia/z1pZC2bOPOeZZ87eZ/bsU1zS0tLSKIDIyEgCAgIK8pIcxcfH4+3tbZk4RsZy1hoZWWvVKG9G1Qes996sViMr9iHOWiMr1tpZa6T+2nFx1F/nz2rbkJGxnLVGVqy1s9aoOPXXrjcdUURERERERCQPGniKiIiIiIiIXWngKSIiIiIiInalgaeIiIiIiIjYlQaeIiIiIiIiYlcaeIqIiIiIiIhdaeApIiIiIiIiduUSFxdXoPt4xsbGUrZsWXvl4xRUo/ypRnlTffKnGuVPNcqfapQ/1Shvqk/+VKP8qUb5U43yZ/UauRf05qCxsbGWulmqFW9w66w1MrLWqlHejKoPWO+9Wa1GVuxDnLVGVqy1s9ZI/bXj4qi/zp/VtiEjYzlrjaxYa2etUXHqr3WorYiIiIiIiNiVBp4iIiIiIiJiVxp4ioiIiIiIiF1p4CkiIiIiIiJ2pYGniIiIiIiI2JUGniIiIiIiImJXGniKiIiIiIiIXWngKSIiIiIiInalgaeIiIiIiIjYlQaeIiIiIiIiYlcaeIqIiIiIiIhdaeApIiIiIiIidqWBp4iIiIiIiNiVBp4iIiIiIiJiVxp4ioiIiIiIiF1p4CkiIiIiIiJ25XL69Ok0s5MQERERERER5+WSlpZWoIFnZGQkAQEBN73i+Ph4vL29LRPHyFjOWiMja60a5c2o+oD13pvVamTFPsRZa2TFWjtrjdRfOy6O+uv8WW0bMjKWs9bIirV21hoVp/5ah9qKiIiIiIiIXWngKSIiIiIiInalgaeIiIiIiIjYlQaeIiIiIiIiYlcaeIqIiIiIiIhdaeApIiIiIiIidqWBp4iIiIiIiNiVBp4iIiIiIiJiVxp4ioiIiIiIiF1p4CkiIiIiIiJ2pYGniIiIiIiI2JUGniIiIiIiImJXGniKiIiIiIiIXWngKSIiIiIiInalgaeIiIiIiIjYlQaeIiIiIiIiYlcucXFxaQV5QWxsLGXLlrVXPk5BNcqfapQ31Sd/qlH+VKP8qUb5U43ypvrkTzXKn2qUP9Uof1avkbu3t3eBXhAbG0tBX5OT+Ph4S8UxMpaz1sjIWqtGeTOqPmC992a1GlmxD3HWGlmx1s5aI/XXjouj/jp/VtuGjIzlrDWyYq2dtUbFqb/WobYiIiIiIiJiVxp4ioiIiIiIiF1p4CkiIiIiIiJ2pYGniIiIiIiI2JUGniIiIiIiImJXGniKiIiIiIiIXWngKSIiIiIiInalgaeIiIiIiIjYlQaeIiIiIiIiYlcaeIqIiIiIiIhdaeApIiIiIiIiduVudgJWEBERYXjMgwcPGh7T2ahGebO1PuHh4Yaszx7twN60DeUuPDycgIAAs9MQcRgz+zD1Rcbti0TEeWngeU1gYKDZKYgU2NGjRw2Np3bgHIzeLkSKCvVh5lCfIyK20KG2IiIiIiIiYlcaeIqIiIiIiIhdaeApIiIiIiIiduUeHx9f4BcV5jVFIY5IUZZXO1AbKb6s1s8auS1aLSdnjWNkLKvFEWM5Yj+k7broxTEyluI4LpY94rh7e3sX6MWxsbEU9DW5JWGlOLa4mHiZ0p4lHbKuIuP8fO5s8QK/pl79b8tXtvP1fRXMzclBUk+tZ+pLU/huxxHOxXtQLvgx5i18hAaZF0rcxIu3jyf6qRW816+cXfPJrR0Y3UbUDnJg4XZgpX7WyG3RqFjOuk8zstbOViP1YfaT2+ditW3IyFjqixwXy1lrVJz6a13VNg8paSl8f3gdq45tJDrhAu5ublxJSiS4YhB31+9FXd8a9k8iLZZ9S+fy4Zcr+e3wSc5eSMXb15+KtzSkead7GDs6HFNvmFBuKF//OYiL0YsZE/pv4gwMnXjiN/6PxoRU88xliXiOrP6QmZ9+z5Z9x7lAKcpXrUvL3o/x3OPtqWhgLtnFsnTiaD441IlJsybR0Psip5OrUzvHZV1w93Czazb2pHZgA1PbgYjkxRJ9WIZjvNsjnGlJY/lx7RPUceCaRUTMpoFnLqITYnl+6wyCKtVhRp8XucWvCgBJKUlsOrKD/2ycTffA9txZr4cds0jitymDGDznAmHDhjN2WE18PRKIPnOcgzu3su+yB/adQ7ORqyely5XBCwz8wp3KL+8+wHtBa3OZOYpn18y7uWfmPvzDh/HopDCqeV7k7/+tZ3OCO76G5ZGb/WzfcZkGD4xjaPjV4WaznBbzbMekTT/bPRt7UTsoAFPagYjkxRp9WCYHl7D4Dy+8WMLi/3uCZxo7ZrUiIlaggWcOUtJSeH7rDO4K6cO/GnfN8pyHmwed6rSmZfVgHln0An4lytC1RttsMeJSLnH+SiS+HuUo7eFXyEy2sXD+H5Qf+hWfTWyV9cMa9lghYxYRaXuJ2BQDQTk/nbx7JmNn7cZv8Fy+n9Lx+kCz50AedER+qeeJioYyZco4Ym2mUDuwgHzagYjkzjp92HV7Fi/hSMiDjHZ9n28X72B84+a43HRUEZGiQVe1zcGyw+sIqlQnY0f1ybaF3PHJfRl/UXExlPT0YUbfCXy671vikrOefHslNYF1Z77l3JWTbDi3lOjEs4XMxAMPD3BxdbXpg7ry10refLg3bZrUp279ZnQY/BSf7oi6YamVjApsy+S9SRxf+xaj+txGkwZ1qNe4BZ0e/JwjABxmZtdAmjy5lqQsr01k9ZhGBHabyeFCvBvb8tvJrEHdaNV4AJ+chF8ntiAwMPDa3yhWApDM+s++5G/PdowZ3zHf2c1L+xYyYVhXwhrVpW6jltwxYhLLDyfcUJMWvLrlCMtfH0n31rdSv14jmrfvxUOTV/BX5kXZzKsdwmhcfzSryZxfem7XnJnHwFqBGbnfOe9czskl/s3amaPp1yGMRnVqZnqvgdRp9CRrU2worJ2oHVi9HYhIXqzTh12TuoPFS4/RpNNg7urclFPLlrAto4/fxauta/PIsivX/p/M2idvpcGjy0nfBSWvepy6rV9jD5B2ZhvzJj/B0B7hhDWpT506QTRr04NhL3zB3kuZV2pLX3ft/drUN4mIFJ4GnjlYfWwjI8IGZ/x/RNhg3un7CtXLVmX1iHn4+1wd6lQo6U947ZZsPrEzy+tjEv/B37MSIX7hVPOuTUzS+UJmEkzvvoFEfvkc4+dv50xi7kumHf+aB/uPZvGFNoyd+RlfzZvC8DoHmXH3EGbsuXLD0mfZ8/E4Rr5/jtCRk/h4wdd8OmUMfboHUx2A2vTp05ALa1eyKfM37sSNrFp3maBevXI5l9GI/Bpy71ufsGjNy3QAmj6xlM2bN1/7+w8dAdjP9m0XoUV3uudz9GHyoY+4d9DzrCvRgxdmz2f+e/+mW9pKxg0YydfH0zIteY7vxtzJq3tu4Z6J7/Plgo95dVgdDn8ymgembON66UMZ/cViVq9/7Yb80nO7ptJ9LDr0B3t3vpn18SwS2Tn1fh5eEE/fKd+waedOIha+TOdKULrXe+zZN4MuJp4aqnZg9XYgInmxTh92VfLWxXwf2YRevapTtUdPgs+vYPHm9M6lMSEhbhw8cOjqf1O3s36XD2V3rOfX5KsP/XngAK6hITQEXErGc/qwC7cOGMN/3vucb77+mNfuq83xb15k+IS1ZBl75tvXFbTvFBEpHB1qe4OUtBSiEy5knAeSn9Bqjdl2aDdduX6IThppuLq4cjr+GJEJfxOVeIazCScynm9ZrjPYdHBNCcKe/ZQZCU/w2kuDWDq1Lm179OVfAwfSIyQAj4zlElk38w02ed/FV3Ofo5XXtdxaNSblj3a8OXMZI+YOomym5X/5v2p8t+o5mqRfr6RZKJkPMqrVpw+Npr3Lio2JdLr96kJJm1bx06UGPNqroJdDKEh+3vhXq4Y//ngD8b5VqFbtxtHlWc6ehTJtq1E6z/XGs2bWTHZVeIDvPxzHrdd+ZglrV4vLHfryxls/0m9GF0pcWzq6TD+Wzn+eJumtIjSMcsd/4c5Va9j/UhjBNud3jVt+5/ztY8X3f9Hg3o8ZHnb14hb+Yffz/L0L6fTJFvbSk1Z5vj/7UTu4ytrtQERyY60+DCCR9YtXEB38KD2rAfSgd7NJzFq8jlfDu1ECD0JDbuXY1oPE0xjvPetYX20oQxI+Z8NvaYSHJXFg/xFubRVytc8rFc6/54RnWUOz0FaUP7mdu5ZvYB9daJlp3Xn3dQXtO0VECkcznjdISE7Ey71E/gteU9LTm7iUrIfn+HtUoGGZFlxIjiI26TznrpziyOX9GX9pabkEy0mJWvzr9aVs2biQKQ+2IPXXOTzRvy3th05jyz/pC+1l06YYfDt0z9hhXFWZ5i2qkrhjB3tvCFvjjj7Xd0A5qd6HPsGXWbsi4tphhslsWvUjlxr1pmfNAuRfyPxs4eXllc8Se/l562UqdLg9Y9AJgFswnTuWJ2bT5izrvaVbz+uDzqsLUrNmdYiM5HQh8svfJS5eBE/PrB+Eu7sHuLiYet6P2sE1RaAdiEh2luvD4n5iyZpYmvbqxdWhcGV69mrOpR+W8OPlq4tUDgmh0oEDHAL2r1uHV5PbCW9Wgg0RvwOHOHCgAqGhlfNYiRt169aEqChunJvNu69T3yQijqEZzxuU9PDmcmIcSSlJeLh55Lv8ydgzVPTOek1NTzcvPN28OJ1w1LC8vKuG0X90GP1HT+DYund5aty7PPJ8HTbO6YcfUZyPgpgF9xK4IKdXN+LiDY9UrJjfzUaq0KdvKG++tZJNSV3o5PIzq36MpcnDPSn4hecLnl/eKlChAkSdOsUVIPevFjHExEI5f/9sz/j7l4PoKKIzPRZQKfsNOVxcXCAtldQC5Wer5vToWYER86fxXbuX6F63JJf/XMn0L/+Paj3G08Qu67SN2kE6K7cDEcmN1fqwC2sW8+NlSPzPbQT+J/MzHixZHUvPAWWhcSgh/3zJH5ePc3b9WcLG16dxSivOzojg78cCOHg2lLsaXntZ6nl2ffsZC9Zs5X+HjnM2+iJxCVdISk4B7si2/rz7OvVNIuIYGnjmoEmFBmw8sp3b67QB4Je/d/HToS2cuHCa2T/P577Q/vh4Xr0Z6ur9EYxoONCB2XlTo9N4Xr5nJb3mbWYv/WhPWXzLQkCHmXw6ol4OrynDLYVYU+VefWg+aQorNiYS7rWaH2NuZVSvwEJEMjq/BjRt5k3yxgi2XOlHp1xHnn74+8H5qOwXR4iKOg9+/mS+RqGLq6MPAPCm48v/5an77mJcr+WMd/WkdEAtWvR6m8/HtsWYWwkXntrBVdZtByKSF+v0YdEsX7ye1BaP8vHolplOD0hm+3uP8MGSFUQNGIK/Rwghjd/gyP6dHDjSjoGt3HFPCafN4aXs2leXPxuHEOIBcIG143vy8A+VuOffY3nz30FUr1SWUt5eRH1+F61eKWh+6ptExDE08MzBkAa9eX3TbFpVb0pJTx8A/H386B3UOctyqw9GQBo0Klc3xzgerp74uGU/C9Hlpo+hjOPEiSgo63vtnItg2of7Mv+PE3g36EdNo8ZPFXvSp+UrTF+zhZ2l1xETfD+9CrX3KUx+JfHxgVPx8Tk850nnu/5F+eVfM2XaEMJeaEGpHGM0oV27Mny2fi17XmpJcPqFelL2sHb9P5Rp0wZzb6F2gU3TnuRb36f4bts9NC1nreaodnCNZduBiOTFMn3Y2e9ZssWFjtMeoXN41ltwhZzvwJynl7D8zBCGVapISAh8smo3B8I60q4EQDs6hLzBrlUeuIXewdUzvX9j9cpIqg77kFeHBmeKdpEdOw4At9mYWDo79Z0iIjew1jddi6jrW4M7arRn1KIXmd73RVpVb0ar6s2yLLP6YASzNv2Xme2fzzVOrZKNqFWy0U1ksoHX+s0noUMbmtaqQgU/b5JiT7Bv3ZfMXZZK20n3XDscswSdn5xAhz7PMWxEHKOHtKVuBU/izp/myJ5N7AsYyZtDct6h5q0cPfu04ZW35/Ju6dM0G5x+bkpmaSQnXObixVgSgMSL54m6UJLSpXzwyNh5FSa/hoSGlGDJV1OZ3/ABbi2bRnysJ4HtG1MJKNH2Gabfu42RH91Dz0NDuKdXGDXLwqVzx9i/25OuUx4glBLcPvYZWvV6mVEPleLZ+9pQmVNs/e8U5kWFMWFcF/I7S7TwbKnLXlYsOkylx9pQs4yJl6/NhdpBOuu2AxHJnVX6sOPfLWaHZ0fe6Zb9vs+lu/Um/LmxLF56nGEP3ULj0GD2vryG6o8+du0HVV/Cwyvxzqe/0/KV9ONs69GokQdLf/qMhR0epHmAGxcj/2DrN7NZ8KtHIS7eYa++U0QkKw08c3FnvR74epZm6PxxhNduSUi1xvh6leJY1ElWHdiISxrMbP88FXyynz9onCoEBcGX389h9bkYLsRBqQoBVKt/G+M+n82QdrdkXIDGpdoA5iyvyEczZvPR8/M4Fp2Ml29FqjdsSe9HCp+jf/e+tJnwNBsjm/FSz6o3PJvC0kfqMnZ1pjMgp91ByDTApS5P/rCWMXULm18F7nzjXf6aMI1Zj93FBRdfKlftzxsZX7h9CX9tMUuazua9+av5YOIXxCZ5UrpcFeo2u5e+16K4Bt7Dp9+WZNobH/DaI+8S6+JHrRY9mfzteAbY7WddW+tyK127VWTEG10JfiM9YU9K+wdQp2VvHn32CbpUN7eJqh1cZd12ICJ5Mb8PO8KSxbvx6fwenUvm8HTJzvTp5MXji5dw5KEx1AwJoXzkX3ToeP0q1tXCw/F5fTMhIekH6VbhvlkfEjVpFm8/NoDIC6mUrlyf1n3HMf/LQ4zsWvBLAdmr7xQRycwlLa1A12UjMjKSgIDsF2EpqPj4eLy9b/4sNiPiREREEBiY8zlbccnxbDqxg4MxR4lPjqeST3laVLo110NyRGwTx5ZXe/HQ+gaMfXoozav74eUGpCQSF3OSjXMm8F7UCH5c8Rh5XTz16NGjhIeH57GE7W1E7cB52LJdFISV+mujYznjPs3IOFB0aqQ+zDz59TlW24aMjKW+yHGxnLVGxam/1oxnPnzcvekW2I5utDM7FXEqO1jy9V80e+FbHurpd8NzTan6x6e8PeMIxyHPgaejqB2ISFGmPkxExHwaeIqYoi6NG3my8ovJzK88mNAa/nilJXDx/En2/7qcTz/YxS39n6CF2WmKiIiIiBhAA08RU1Tmvg/mkzrjAxZMfJjJ56K5lOSGT9mKVK/XlA4vLuKhO0NMv6WKiIiIiIgRNPAUMYmLfwsemNSCB8xORERERETEztzjC3F/uMK8pijEESnK8moHaiPFl9X6WSO3Ravl5KxxjIxltThiLEfsh7RdF704RsZSHMfFskcc94JesSg2NtZSV3Ay8kpQIkVZbu1AbaR4s1I/a8WrJDrrPs3IWjtrjcR4uX0uVtuGjIylvshxsZy1RsWpv7bXjQxFREREREREAJ3jmeHo0aNmp+C0UtJScHNxMzsNsYGztwNtiyLOraj2YYmpiXi6epqdhoiIXWngCYbeaF2y2nBsA3si9/BEyyfMTkXyURzawYxfZhBaOZTwGs7/XkWKm6Lah+0+s5uhi4eyb9Q+s1MREbErHWordvVKxCtM2TqF+GRdCELMFZcUx5StU3hl4ytmpyIikuGBZQ/w+z+/s/bIWrNTERGxKw08MzHq6k2RkZGGxLHyValsseHYBjYc20DkpUg+2PlBludUo7wZVR8jFfUafbDzA85cPsP6o+uJOBZheD5GxnLm7UjEKqzQznaf2c2uyF0AjFoxynJ9iK4eLCJG0sBT7OaViOszS5r1FDOlz3am06yniFjBA8uu38n5cPRh1h1bZ2I2IiL2pYGn2EX6bGe6nGY9RRwlfbYz3Y2zniIijpZ5tjPdmLVjTMpGRMT+NPAUu8g825lOs55ihhtnO9Np1lNEzJR5tjPdXzF/6VxPEXFaGniK4W6c7UynWU8xw42znek06ykiZslptjPdqBWjHJyNiIhjaOAphstptjOdZj3FkXKb7UynWU8RMUNOs53pDkcf1qyniDglDTzFULnNdqbTrKc4Um6znenWH13PpuObHJiRiBR3ec12ptOsp4g4Iw08xVB5zXamm7J1CgkpCQ7IRoqz/GY7073+8+sOyEZE5Kq8ZjvTadZTRJyRu9kJiPP4M+pPADrU6JDl8a0nttKmWpusj53aSmDVQIflJsXPhmMbCCofRFD5oIzHctoWU1NTORx9mNp+tR2doogUM1EJUZy4eALfEr5ZHo+5EpPtsTm/zaFLzS6OTE9ExK408BTD1PGvw/ph67M9Pm7NOGZ2m5nlMd3YXuytR50e9KjTI8tjA74ZwLeDvs3yWHx8PN7e3o5MTUSKKX8vf84+eTbb426T3Ih+Jlr9kYg4NR1qK3Z346BTxCw3DjpFRERExDE08BS7m/7LdLNTEAFg4e8LzU5BREREpFhyOX36dJrZSYhzC54fzJ6he8xOQ0TboohYUtWPq3LywZNmpyEiYlfuAQEBBXpBZGQkBX1NTow6j8HI8yGMiuWsNSpsHFdX12z1UI3yZlR9wHrvzcwa5bQtWrEPsdp2ZLX3ZWQsZ62RkbVWjfJmVH0CAgIs996sViMr9iHOWiMr1tpZa1Sc+msdaisiIiJikuiEaFxcXMxOQ0TE7jTwFBERETHJzF9n4u2uK9mKiPPTwFPsrkbZGqSkpZidhhRzcUlx+Hr55r+giIiDRCdE8989/8Xf25/tp7abnY6IiF1p4Cl2t2X4Ftxc3IhJiDE7FSmmElMS8fHw4beRv5mdiohIhpm/zuT+4PtZNHARg78dzM7InWanJCJiNxp4it2lDzpDPw5l7u65Zqcjxczc3XMJ/TiUxJREHc4mIpYxd/dcPvvfZ4xrOY4WVVqwcMBC7vn+Hu0nRcRpaeApDuHr5cvG+zayaP8iei7oSWRcpNkpiZM7efEkPRf0ZNH+RaweshpPN0+zUxIRydI3bb5/M35efgC0qNKCn+7+KWM/efKibq8iIs7F3ewEpPioWroqK+5ewdzdc+m0qBPBAcGsH7aed7a/w5jVY7ItH/9cPH/H/k399+tne+67wd/Rt35fGn7UkKOxR7M8Nyp0FO/3eJ9HVz7K7J2zszxX07cmfz3+F8v+WEbfr/tmi3vg0QPUKFsD7zeyz4y9fcfbPN7icTp+1pENxzZkea5HnR6suHsF07dNZ8LGCVmec3VxJeXFFHZH7qbZR82yxV17z1o61+zM7J2zaRbQjOaVm2dbJjfJqcnsOL2DI9FHuLvx3Xy862NGLh+Zbbmo8VFcSrxE9VnVsz23oP8C7mp0F40/aMy+c/uyPHd/8P3M7TOXp9Y+xYxfZmR5LqBUAKefOM3av9bSdX7XbHF3jdxF04CmuE1yIzUtNctzk2+fzDNtnqHHgh6s+nNVluc6BnZk3b3reHvb24xdMzZb3ITnEzgac5QGHzXI9tyyO5fRu15var5Tk4tXLjK181SGNx2ebTkRq0pOTeaXk78QcSyCDUc3sPn4Zi4lXjI7LTFQOe9yufZNVUpVydhPBn8YzPn48yZkKPZSyrMUbW9pS4fADoTXCKd55ea4u+qruBQfLmlpaWkFeYHV7w9jhVjOWqPidJ8hR8dJSUth2s/T2HB0A7vP7Oa2gNu4N+ReutXuhpe7V5ZlE5ITWHN4DYv2L+LHIz/StFJTutfpzpiw7IP3m8nJ6nGstg0ZGctZa2TFWluhRpnb9Nq/1tIsoNlNfzFVf+24OLrvcv6stg0ZGasgcdJ/LE7/YWn3md10rtmZgUEDaVqqKTWq1nBoPo6IY2Qsq21HVosD1q+RfmYRsQA3FzeebfMsz7Z5loTkBL7a8RWL9i/C39ufdtXbZVl28YHFrPpzFQODBvJRr4+yDUxFpOg4efEkrT9tTXiNcAYGDeTt29/Gr7Sf2WmJiB24u7rTqmorWlVtlbG/T//R6bEjj/Hn439qny5OTQNPEYvxcvfijsA7uL/V/QD8dvo3QiqHAHD8wnGGNB7CkMZDzExRRAwycvlIXgl/JeOwy/j4eJMzEhFH8XL3om/9vvSt35cBCwaw5vAa+tbPfhqQiLPQxYVELG7ChgnM3T2Xubvn5njOo4gUTelXL9V5yCLSu2Zvvtn/jdlpiNiVZjxFLG5Orzm0/rQ1AD8/8LPJ2YiIUSZGTFSbFhEAOt7SkRd+eYHk1GRdcEiclmY8RSyuaumqxCXF0ahCI6qWrmp2OiJikKTUJLVpEQGghFsJmlRswo7TO8xORcRuNPAUKQISUxPpENjB7DRERETETjoEdiDiWITZaYjYjQaeIkVAUkoS4TXCzU5DRERE7CS8Rjgbjm7If0GRIkoHkYsUAfHP6UqXIiIizqx55ebsObPH7DRE7Ma9MJduN+py71aLY2QsxXFcrOIQ55P/fcKIJiMMiXUzFMdxsRTHcbHMipOWlpbja6z2voyMpTiOi6U4jotlVJykK0mkpqXedDyrvS8jYymO42LZI467t7d3gV4cGxtLQV+TWxJWimNkLGetkZG1Vo3ydmN9xq4dy+iWo03NyWpxrLYNGRnLWWtkxVqbWSMXF5dsr7FirZ11O7LaNgTWe29Wq5EV+xCja5RTv2BGPlastdW2I6vFAevXSOd4ioiIiIiIiF1p4CkiIiIiIiJ2pYGniIiIiIiI2JUGniIiIiIiImJXGniKFAHv93jf7BRERERERApNA0+RIuDhkIfNTkFEREREpNA08BQpAtwmuZmdgoiIiIhIoWngKSIiIiIiInalgaeIiIiIiIjYlQaeIiIiIiIiYlcaeIqIiIiIiIhduZudgBQ/ERERABw8eNDkTKwtc31a+bfKqJtcZ8s2FB4e7oBMrCXztqJ2lj+zavSviv8qMu1a24R7yk4AACAASURBVJExfUlR+bztQdtQ/g4ePFik+gUzaDu6rih+v9HAU0wRGBhodgpFypeBX5qdQpF09OhRs1MwjdqY9T0b+KzZKYiNjOxL1DYlL+oXxBZF9fuNDrUVESmmLiZeNjsFERERKSY04ykiUkykpKXw/eF1rDq2keiEC7i7uXElKZHgikHcXb8XdX1rmJ2iiIiIOCkNPEVEioHohFie3zqDoEp1mNHnRW7xqwJAUkoSm47s4D8bZ9M9sD131uthcqYiIiLijNzj4+ML/KLCvKYoxDEyluKIWEte264z9yFwdabz+a0zuCukD/9q3DXLcx5uHnSq05qW1YN5ZNEL+JUoQ9cabbPFiEu5xPkrkfh6lKO0h59huYkUJbm1S+0bRcQMOfU9VvsekjmOu7e3d4FeHBsbS0Ffk1sSVopjZCxnrZGRtbaJiyukpTpufXLzzs/nzhYv8Ou1j63lK9v5+r4K5uZ0TW7brhX7EKPb2rLD6wiqVCdj0PnJtoV8s3dFxvNf3j0Lfx9fZvSdwND542hbNRQf9+vrv5KawLoz31LFO5DdMZtpW74Hfp4VDcvPUhI38eLt44l+agXv9StndjZiMTm1S6P2+ZldTLxMac+Shsa0rILuN6zeRq2enziVG/seq49BdHEhsYzkVBfW7i/Ly8vKsf1kZUqUqcrkNeX4IMKPv6NKOCCDlYwKDKTfnBPZnjkxpx+BgaNYmcOrEk/8xm8nEvONbutyeUqLZd93MxkzuCttQxtRr24QwS1uo0v/kTz3bgSRNxf95pUbytd//sHenW/S0eDQhtSvmFp9bCMjwgZn/H9E2GDe6fsK1ctWZfWIefj7+AJQoaQ/4bVbsvnEziyvj0n8B3/PSoT4hVPNuzYxSeftmO3VdhiY41/ObdB4Lrh7uDlkTUWJbW3wGO/2CCSwy1v86ZCsnENKWgrf/bmWh3+awOAVY3l43QQGfD+aV399j0MxxxycjYM/w0LtN8xpo7bvhxydXzxHVs9k7ODbad6oHvUahdCm65088c5Gzjpg7Wbtn9UnFT06x1Ms4UKCO28sL0PV8q483M2TwIpXO+xn+3uz7Y8Upq92oWezEnQNumBypjdK5Zd3H+C9oLX5zOzZulxekvhtyiAGz7lA2LDhjB1WE1+PBKLPHOfgzq3su+yBJX5bdfWkdLkyeAFxhgU1on7FU0paCtEJFzLO6cxPaLXGbDu0m65cP9w2jTRcXVw5HX+MyIS/iUo8w9mE6z/QtCzXGXAxNO/ad03npe7lb3i0Ao0MXUsOPNsxadPP9l5LEWRjGzy4hMV/eOHFEhb/3xM809hxGRZVljv/2ozPsCD7DdPaqI1twOH5xbNr5t3cM3Mf/uHDeHRSGNU8L/L3/9azOcEdX7uv36z9s/qkokgDTzFdKi7MXFuazk096RHqkeW5Eu4utGvoTkgtNyYuiKeEeynC617KFsO088/S9hKxKQaCDFouT9tYOP8Pyg/9is8mtsraeIc9djOBrc+Q+hVPCcmJeLnbfsRASU9v4lKyntfh71EBnzKlOJ1wlNhrs53nrpzKeD7MvzMuxo47KV2rJeHh1YwNKoVnYxvcs3gJR0IeZLTr+3y7eAfjGzc3+CcJ52LF86/1GebCovuh5N0zGTtrN36D5/L9lI7XB5o9B/KgIxIwqy7qk4okHWorplt3oBTlSrtlDDr/PJ3CK1/FMfrDOKYsiedUVColvVx4up8XX//sSWJK1s02/fyzc1dOsuHcUqITHXFgyU5mDepGq8YD+OQk/DqxRS6HA9qy3EpGBdZm1HfH2DDjEbq3akS9eo1o3XMUMyNOc/0sVw88PMDF1dWmhnvlr5W8+XBv2jSpT936zegw+Ck+3RF1w1IrGRXYlsl7kzi+9i1G9bmNJg3qUK9xCzo9+DlHADjMzK6BNHlyLUlZXpvI6jGNCOw2k8OFqKBt+dlaZ8lNSQ9vLifGkZSSlP/CwMnYM1T0zjp37unmRRlLXVBoJaMCW/DqliMsf30k3VvfSv16jWjevhcPTV7BXwnpyxVg2z0zj4G1rh/We+e8c3msO782c9WlfQuZMKwrYY3qUrdRS+4YMYnlhxNuiGXL+1jJqMA2vL7sa0a0bkTogFns/vsH/n1HUxo178sr6//JkmH+bcvW9UKB2mDqDhYvPUaTToO5q3NTTi1bwraU9Cd38Wrr2jyy7Mq1/yez9slbafDoctJXl7zqceq2fo09QNqZbcyb/ARDe4QT1qQ+deoE0axND4a98AV7s/z2aPvnYVuf41g5nX99xyf3ZfxFxcVQ0tOHGX0n8Om+b4lLzvqjkOH7vzw/Q7B9f2XrcgVgcxuFtOg9fP36Ywzs1ILG9etQJ6gJzdt1Z+gLyziZvozN25iNbaAA+RnXNySz/rMv+duzHWPGd8x3dtO49RagLtjS9pI58E4f6jYYwKdHrm8dacc/586Gdeg+Y2+mPlx9UlGmGU8x3aaDnjzczROAs7GpTF+awL8HeFGjghu/H0/m9W8SeOtBHwL8XGkS6Mb/TvrQvPr1Vp75/DMXXIlJOu+AC5805N63PmEAG3ix7YvEPLGUdwekf1n3yXTIq63LpbDl1WGc6jKMx6eOoAKn+fnzKbw94j74fhXjgtyAYHr3DeSLL55jfN03eWZQCyp55pxd2vGvebD/cxwMGslTM1+kjs8F/m/ZLKbePYSYRUt5MjjzDNhZ9nw8jvV/l2XgyEkMr1aGxNO/syM+mOoA1KZPn4bM/HAlm5K60Cl9UjpxI6vWXSbo4V7ULmD1bM/P1vpJXppUaMDGI9u5vU4bAH75exc/HdrCiQunmf3zfO4L7Y+P59WT/1fvj2BEw4Fmpmujc3w35k6W1+nF2InDaFDBnTO7vmb6lNE8cKUCP7wUhmdBtt1K97Ho0N1cjFnMmNB/53O4X35tBpIPfcS9gyZz9rbRvDC7DZVTT7Lls6mMG3CQy99/xp23pP/mbsv7ADjFwo8P8NLkp0gbM5lHR4TT/5m3GPHhI7w9ZQH3dXycQArStmxdr+1tMHnrYr6PbMKoXtWp6tqT4P+8w+LNL9My3ANoTEiIG+sPHII+jSF1O+t3+VD28np+Te5FuDv8eeAArqF30BBwKRnP6cMu3DpgDPfXu4XyPkmc3PEV06e/yPC4Smx4qwulCvB5FKxPdJzVxzYyo8+LGf8fETaY9rXCmLphDnMGvp7xeObzr7sGXp/1NHr/l/dnmM6W/VVBlrORrW307GrG/ms0q1Jbct8jE3m0QVV802I4cWAH+0rVJ/2kA9u3MRvbgI35Gds37Gf7tovQojvd8znK1fg+yba62Nb23Gnw6Fs8ua4nU5+Zy+0LR1CD48wb/ya764zj+zG3cn0LVJ9UlGngKaZycXGhdwtPala6ugP66X/J9Aj1pEaFq/9veIs77z58fTMd1MaThPiscxdGn3+2+/W2BL6e0zOVM/3bG/9q1fDHH28g3rcK1arl1OvbuhzE1RnOh5PvJ+Da/1vcVovLnXrx0TurGPl+L0pSgrBnP2VGwhO89tIglk6tS9seffnXwIH0CAnI1Cknsm7mG2zyvouv5j5HK6+rj4a2akzKH+14c+YyRswdRNlMy//yf9X4btVzNEkfyDYLJfMBXbX69KHRtHdZsTGRTrdfXShp0yp+utSAR3vVybWWOStIfrbXT3I3pEFvXt80m1bVm1LS0wcAfx8/egd1zrLc6oMRkAaNytXNMY6Hqyc+bqWzPW70YbaQWzvszvtHZ5N+plt0mX4snf88TdK7iNAwyh3/hTtXrWH/S2EEU8Bt183W88zyazPxrJk1k10VHuD7D8dx67VDFMLa1eJyh7688daP9JvRhfSvFba8DwDf2/rTv30QrmGvsdGlJ4936cjpP+vx9qwjHAECC9j2bVuvrW0wkfWLVxAd/Cg9qwH0oHezScxavI5Xw7tRAg9CQ27l2NaDxNMY7z3rWF9tKEMSPmfDb2mEhyVxYP8Rbm0VcrUvKxXOv+eEZ1lDs9BWlD+5nbuWb2AfXWhp8+dR0D7RMax3/nV+n+F1+e+vCraczfJto0lsnPECyy60Y8ZPc+mfaQwe0qojfTIvavM2VoD9UL75Gd03nOXsWSjTthrZe2Z7rtfWuhSg7bnV5uEZz7Kux2Se+W8n3nR5jsm76/PMylHUyzJaUZ9UlOlQWzGZC7cFXe9RYi+n4l8q951klXKu1KiYdbP196hAwzItuJAcRWzSec5dOcWRy/sz/tLSCpZR7bumM2/evCx/0+8q6JxewdVs3Spj5wyAa2M6hVfg8t691w/NKFGLf72+lC0bFzLlwRak/jqHJ/q3pf3QaWzJONpuL5s2xeDboXtGZ3ZVZZq3qErijh3svWHdNe7oc71zzEn1PvQJvszaFRHXDndJZtOqH7nUqDc9axb0nRY8P7k5dX1rcEeN9oxa9CLnLkfRqnozRrUemvHn4+nN6oMRzNr0X55r/nCucWqVbESfqsOz/Rl9YSHIuR3Om/c4YZmWuaVbz+tfjABwo2bN6hAZyen0hwzddq/Lu83s5eetl6nQ4faML3hX0wumc8fyxGzanGUbt+l9AOXKlwfcKV3aG7+AAEoAJX18ICHh2qFhBWtbtq7XJnE/sWRNLE179bo2o1SZnr2ac+mHJfx4+VoWISFUOnCAQ8D+devwanI74c1KsCHid+AQBw5UIDS0cq6rADfq1q0JUVHceF3l/D4PK/Y5Rp1/bdj+z4bPMJ1N+6sCLGecvaxff56SdwzLMui0Xe7bmDHs0zd4eWXZsB223vwVrO251ryf6c+H8n9TBzBg8l6avfAWD9Qq5NWB1SdZkmY8xVRpaam8+nUczw7wpoS7C/WquLHrSHKWwejyHUl0aepOCXcXVv+WhJdbCq0Dr8fwdPPC082L0wlHDckpp4uanDiY92+JRvDz88/5schIIoHMF2LzrhpG/9Fh9B89gWPr3uWpce/yyPN12DinH35EcT4KYhbcS+CCnNbUiIs3PFKxYn576Cr06RvKm29dO2TR5WdW/RhLk4d7UqNA7xIoRH5y8+6s1wNfz9IMnT+O8NotCanWGF+vUhyLOsmqAxtxSYOZ7Z+ngk/27dAMtlxcKKBSQLbHXFxcIC010zlkRm671+XdZmKIiYVy/tlr6e9fDqKjiC7w+wB39+v9oqdn5m80aVwdXxSsbdm6XltcWLOYHy9D4n9uI/A/mZ/xYMnqWHoOKAuNQwn550v+uHycs+vPEja+Po1TWnF2RgR/PxbAwbOh3NXw2stSz7Pr289YsGYr/zt0nLPRF4lLuEJScgpwR7b15/15WLPPyXz+tYebR77L53b+tVH7P5s+w2ts3V8VZL9mjPP8cx6qVMlrsHBNAbcxYxjdN1SgQgWIOnWKK0DuP2PYp0/KX0HbngvVB93P7VNGsow+DB9Uo9A/a6pPsiYNPMV0Zb1T2f5HCm0butOhsQcb9yXx9vIEGld3Y9uhZMr6uFDC/epOed3/kniow5V8IhZNF2JjgawdVVTUeShThjK5vsqbGp3G8/I9K+k1bzN76Ud7yuJbFgI6zOTTEfVyeE0ZbilEfpV79aH5pCms2JhIuNdqfoy5lVG9AvN/YTb2yU/y1y2wHe2qNWfTiR38emgX8cnxVPIpz4MNB+Z6eK2VubjadtCOcduurfzw94PzUdkvEhEVdR78/Ml8qSZb30f+Cta2jFtvNMsXrye1xaN8PLplpsP+k9n+3iN8sGQFUQOG4O8RQkjjNziyfycHjrRjYCt33FPCaXN4Kbv21eXPxiGEeABcYO34njz8QyXu+fdY3vx3ENUrlaWUtxdRn99Fq1cKmp91+xzrnH9t42d47VFb91eF26/dDF/8fCEy8gzQII/ljN7GbGV039CAps28Sd4YwZYr/eiU68izaPRJEM+vb77O8lLNaMZyXp88lLYTW+Jd4PWqT7IqDTzFdD1ujWP6ahea1XKjpJcLE+/yYfdfKZyOSaVPmAcNb7m6mf6wK4lSXmnc4peQYxxHnn92XUl8fOBUfPxNL3doy2bOjK1LpfQHUv/HTxv+wbt583zuXRjHiRNRUNb32vkAwbQP92X+HyfwbtCPmkbtPyr2pE/LV5i+Zgs7S68jJvh+ehWqZyxMfrbWWfLj4+5Nt8B2dKOd2ak4jmHbrq2a0K5dGT5bv5Y9L7UkOONaK3tYu/4fyrRpY4eZHrBb2wfybINnv2fJFhc6TnuEzuFZhxMh5zsw5+klLD8zhGGVKhISAp+s2s2BsI60KwHQjg4hb7BrlQduoXdw9Uyt31i9MpKqwz7k1aHBmaJdZMeOA8BtBczdnnW5OZY5/9rmz/DqY7burwq/XyusYMLD/fhs9RcseyacPrlega4w25gR+yGj+wZPOt/1L8ov/5op04YQ9kKLTBe4sed6M8urLgVre5c2v8aT8+IZ9N9lvMgkutz/JJNuX8N/2ub0rtQnFUUaeIrpqvtfoWezEry0IJ5n/uVFJV9XmtV2oxnXj+v/YVcSi39J5LUBuR98UKtkI2qVtPvt5W/QkNCQEiz5airzGz7ArWXTiI/1JLB94+s7WhuX8/59NveMu8LYAaEEEMnPn01m7ql6jHqn+7ULMGzgtX7zSejQhqa1qlDBz5uk2BPsW/clc5el0nbSPTQBoASdn5xAhz7PMWxEHKOHtKVuBU/izp/myJ5N7AsYyZtDCjO7VY6efdrwyttzebf0aZoN7kX2S2KkkZxwmYsXY0kAEi+eJ+pCSUqX8sEjo2MtTH621lmcxcW/fiUi4sYb9VSgUXhDyhc4mlHbrq1KcPvYZ2jV62VGPVSKZ+9rQ2VOsfW/U5gXFcaEcV3I74yswrFX24e82mDid4vZ4dmRd7pln8Mq3a034c+NZfHS4wx76BYahwaz9+U1VH/0sWtfkH0JD6/EO5/+TstX0o9pq0ejRh4s/ekzFnZ4kOYBblyM/IOt38xmwa8ehbg4hT3rcnMyn389ve+LtKrejFbVm2VZJv3865ntn881zs3u/47b/BlefSz//VVBlrO17dmynCe3P/0qd2wey9N97mXfI3fRun5VfF0u8c+pw+z5NZWOrw8npFDbWH77Idv2f0b3DSXaPsP0e7cx8qN76HloCPf0CqNmWbh07hj7d3vSdcoDhNq1T8qrLgVoe7HreenpL0kdOJcXw0tTmgm8OagLw8dPpMvq6XTIdqUd9UlFkQaeYgldgy5Qwr0Uz32eRnCgGwPaeFKtnCs/7Erixz1JuLumMaHvRcqUsO1ehI5TgTvfeJe/Jkxj1mN3ccHFl8pV+/NGtgFR/ss1f/I9uh+ZxYyxs/j7ohsVG3bgyc9eYlRw+rlcVQgKgi+/n8PqczFciINSFQKoVv82xn0+myHtbsk4F8Kl2gDmLK/IRzNm89Hz8zgWnYyXb0WqN2xJ70cKfw6ff/e+tJnwNBsjm/FSz6o3PJvC0kfqMnZ1pjNApt1ByDTApS5P/rCWMXULm5+tdRZncfirp7jvqxsfzXpV24Iwatu1lWvgPXz6bUmmvfEBrz3yLrEuftRq0ZPJ345ngB1/3rZX28+9DZZk2+Ld+HR+j845XaK0ZGf6dPLi8cVLOPLQGGqGhFA+8i86dLx+Fcpq4eH4vL6ZkJD0A+KqcN+sD4maNIu3HxtA5IVUSleuT+u+45j/5SFGdi34ZTfsV5ebZ/7510dYYvNnePVK0Pnvr7BxOVvbXgHaaOXevL+yKgvem8O3n07ki5MxXHH1pmy5qjQIvfda/1GYbSyv/ZDt+RnfN/gS/tpiljSdzXvzV/PBxC+ITfKkdLkq1G12L32x13ptqYutbS+a1S8+w+K0Acx7qeO1K/SWosOEKQzsei/jX+zCD+/cgZ9N61WfZGUuaWkFu+ZnZGQkAQHZTzouqPj4eLy9C37Utr3iGBnLWWtkVJyIiAgCA3M+vyopxZXdJ3yoVt6dW8q7svH3FG7xvZLr4bXOYSWjAh8l+tUdfDWs4HM5krujR48SHh6e5zJW7ENuNk5ebUxECi6vvqQg+/y82mZccjybTuzgYMzRjPOvW1S61WLnX9u6v9J+TcSecuuTrD4G0YynWIqHWyotalwCIDke2tzE7Q6KmgL+BiQiIk6kKJ1/bev+Svs1EcmsGJ3OKiIiIiIiImbQwFNERERERETsyj2+EJeFLsxrikIcI2MpjtiuB7OP3vzNvyVveW27ztyHiIhxcmuXxae92rq/0n5NxBFy6nus9j0kcxz3gp44Ghsba4mLZxgdx8hYzlojI2st4mi5bbtW7EPU1kSsKad2adQ+X0SkoG7se6w+BtGhtiIiIiIiImJXGniKiIiIiIiIXel2KmKKozr3o0ASEq7elNrLS78ViW3UxqztSuoVUtNS8XbTIZrFjdqm5CU6MRo/Tz+z0xCxCw08xeFyuwm35G7q1J9xcYGnn25tdipSBKiNWd/MX2cSnxzPc7c9Z3Yq4kBqm5KXxJREmn/cnIj7IvDz0uBTnI+mT0Qs7vLlJKZO3crUqT9z+XKS2emIyE2KT45nytYpTP95OhcTL5qdjohYxNw9c9l7di9v/fKW2amI2IUGnmKKyMhIQ+JY+ZLRNyNzfd5/fwfnzsVx9uxlZs/eYVpOVotj1DbkzJy1nRkZy4wafbjzQ05fOs35+PO8u/3dQscxKp/8OOt2ZMVboFjtvRXlduaoWEbFOX7qOK9vfh2At7e9TXRCtKn5WLHWVtuOrBanKNDAU8TC0mc702nWU6RoS5/tTKdZTxEB+OqPr/g79m8AYq/EatZTnJIGniIWlj7bma6ws54iYg3ps53pcpr1FJHiJTElkVm7ZmV57GZmPUWsSgNPEYu6cbYznWY9RYqmG2c702nWU6R4m7tnLicvnczymGY9xRlp4CliUTfOdqbTrKdI0XTjbGc6zXqKFF+JKYkZ53beSLOe4mw08BSxoLi45BxnO9Np1lOkaMlttjOdZj1Fiqe5e+ZmnNt5I816irPRwFPEgv77399znO1Mp1lPkaIlt9nOdJr1FCl+8prtTKdZT3EmGniKWMzly0m8//6efJfTrKdI0ZDfbGc6zXqKFC95zXam06ynOBN3sxMQkayOHo1h+PBGlCpVKuOxadN+5umnW2db9tixGBo2rODI9ESkgI7FHOPh0IezPT7t52k83frpLI/9feFvKpat6KjURMRE7i7uvBz+MgCXLl2iVKlSOfYLZUqUMSM9EcNp4CliMY0aVeCpp0IICAjIeOyDD3YycWJ7E7MSkcJqUL4BE9tPzPZ4l1pdaFOtTZbHitONxEWKuxHNRmT8OzIykoCAAD7Y+UGO/YWIM9ChtiIiIia4cdApIiLizDTwFBERMUHltyqbnYKIiIjDuJw+fTrN7CREJG/BwfPZs2eo2WmIiIGC5wezZ2j+FxITkeJD/YI4M/fM55HZIv0Y9JsVHx+Pt7e3ZeIYGctZa2RkrVWjvN1YH1dX10LXy2rvzVnbmZGxnLVGVqy1mTXKqV1bsdbOuh1ZbRsC6703q9XIin2I0TV65rZnbqpWVntfRsay2nZktThg/RrpUFuRIsDV1YWEhGSz0xARgyQkJ+Dqol2wiGT1VKunzE5BxG601xMpAjp2DGTNmsNmpyEiBllzeA0dAzuanYaIWMyAbwaYnYKI3WjgKVIEDBoUxDff7Dc7DRExSKBvIE+2fNLsNETEYrae2Gp2CiJ2o4GnSBHQrVttNm36m+3bT5mdiojcpGOxxwiuFExI5RCzUxEREXEYDTxFigAvL3cWLRrI4MHfavApUoRtP7WdDp914FjsMbNTERERcSh3sxMQEdu0aFGFhQsH0L//N3ToUIOBA4Po1q02Xl5qxiJWlpCcwJrDa1i0fxEbjm1g8aDF1Chbw+y0REREHErfWEWKkBYtqnDo0GOsWXOYRYv288gjK2natBIdOgQSHl6D5s0r4+6uAxlEzJScmsyO0ztITUulTbU2PPPjM0QnRDMwaCAf9foIL3cvs1MUEYtqU62N2SmI2I0GniJFjJeXO3371qdv3/okJ6eyY8dpIiKO8corEWzefJxLlxLNTjGbcuW8mTq1M8OHNzU7FcnH3N1zGf/jeM7Hn2dU6Cje7/E+Y9eO5aM9H2VZrpZfLQ6PPszSg0vpt7BftjgHHz1I9bLV8X4j+33A3r7jbR5v8TgdP+vIhmMbsjzXo04PVty9gje3vMlz657L8pybixvJLyazK3IXIR9lPz9y7T1r6VyzMwEzAjhz+UyW555q9RTTukzj/mX3M2/PvCzPNa7YmL0P72XB/y1gyJIh2eIeH3scHw8fyk0rl+25j3t9zIhmI2j/RXt2RO4AoJRnKdre0pbhTYdnvF8REVt8O+hbs1MQsRuXtLS0tIK8wOo3JrVCLGetUXG6wa3ZcZzthuQnT17koYeWA/D2252pXbvCTedjtW3IyFhmbEcnL57koeUPATCn1xyqlq5qeD5WrLXVtiOrxQHVKD/O1l/bI47VtiEjYxldo4W/L2Rww8Gm52PFWlttO7JaHLB+jXRMnojYXdWqpVmx4m4GDgyiU6cvSUhINjslucGx2GMMDBrIirtXZBl0ioiI44xdM9bsFETsRgNPEXGY4cOb0qZNNdasOWx2KpLJb6d/o021NhmHhoqIiIgYTQNPEXGo/v3r8c03+81OQ66Zu3suEzZMMDsNERERcXIaeIqIQ3XuHMj69UdJTk41OxUBJkZMZE6vOWanISIiIk5OA08RcSgvL3eaNKnIjh2nzU5FgKTUJJ3TKSIiInangaeIOFyHDoFERBwzOw0RERFLOf2EfpQV56WBp4g4XHh4DTZsOGp2GiIiIpZy/MJxs1MQsRuXuLi4At3HMzY2lrJly9orH6egGuVPNcqbs9cnOTmVevU+5K+/RhU6hrPXyAiqUf5Uo/ypRnlTffKnGuUvvUY1Z9fkyKgjZqdjSdqO8mf1GrkXp5faBQAAIABJREFU9OagsbGxlrpZqhVvcOusNTKy1qpR3oyqD1jvvcXHx1O6dEnA5abiWW0bMjKWI7ejrSe20qZaG4fkY8VaW207slocUI3y4+z9tZVqZMU+xOgaubjc3L7Rau/LyFhW246sFgesXyMdaisiUowN+GaA2SmIiIhIMaCBp4iIiIiIiNiVBp4iIiIiIiJiVxp4ioiIiIhYwLeDvjU7BRG70cBTRERERMQC8rvYm0hRpoGniEgxpl/XRUSsI+yTMLNTELEbDTxFRIox/bouImIdxy8cNzsFEbvRwFNEpBir/FZls1MQERGRYkADTxEREREREbErDTxFRERERETErjTwFBERERGxgDsb3ml2CiJ2o4GniIiIiIgFzOw20+wUROxGA08RMcXTT7c2OwUBnm79tNkpiIjINePWjDM7BRG7cTc7AREpuIiICLNTuGnNm9/8+zh48KBB2Tiv/GrUnOZFfnsKDw83OwUREUN8/fvXmvUUp6WBp0gRFRgYaHYKIqY7evSo2SmIiIiIDXSorYiIiIiIiNiVe3x8fIFfVJjXFIU4RsZSHMfFUhwRgcK3Gau1WavFMTKW4jguluI4LpaRcdLS0m46ntXel5GxFMdxsewRx93b27tAL46NjaWgr8ktCSvFMTKWs9bIyFqrRnkzqj4ixUlh2oz6ovypRnkzsr+22nuzWo2s+J3P6BpVL1v9puJZ7X0ZGctq25HV4oD1a6RDbUVERERELGDbiG1mpyBiNxp4ijgzFzXxIuf8fO6sFUhg4NW/O+edMzsjERFxkIW/LzQ7BRG70bdSESeSnOrC2v1leXlZObafrEyJMlWZvKYcH0T48XdUCQdksJJRgYH0m3Mi2zMn5vQjMHAUK3N4VeKJ3/jtRGK+0W1dLk9psez7biZjBnelbWgj6tUNIrjFbXTpP5Ln3o0g8uai37xyQ/n6zz/Yu/NNOhocOvf6Xf3cAjP+alE3qCmtuw5mzNTvOazTjUVEHGLsmrFmpyBiN7qdioiTuJDgzhvLy1C1vCsPd/MksKIbAM/292bbHylMX+1Cz2Yl6Bp0weRMb5TKL+8+wHtBa/n6vgoGLJeXJH6bMojBcy4QNmw4Y4fVxNcjgegzxzm4cyv7LntQrpCRDeXqSelyZfAC4gwLmn/96gx9h0m9KwDJxMee5c+tX/Hhe4+z5ZQXG9/qQknDchEREZHiRgNPESeQigsz15amc1NPeoR6ZHmuhLsL7Rq6E1LLjYkL4inhXorwupeyxYhLucT5K5H4epSjtIefo1KHtL1EbIqBIIOWy9M2Fs7/g/JDv+Kzia2ydoDDHruZwNZnQ/1K1WhGq1bVMv7fsVsPKp1pwpgf1rCTLrR3QJoiIiLinHSorYgTWHegFOVKu2UMOv88ncIrX8Ux+sM4piyJ51RUKiW9XHi6nxdf/+xJYkrWpn8lNYF1Z77l3JWTbDi3lOjEsw7IeiezBnWjVeMBfHISfp3YItOhnpkPybVluZWMCqzNqO+OsWHGI3Rv1Yh69RrRuucoZkacJjUjlgceHuDi6mpT53flr5W8+XBv2jSpT936zegw+Ck+3RF1w1IrGRXYlsl7kzi+9i1G9bmNJg3qUK9xCzo9+DlHADjMzK6BNHlyLUlZXpvI6jGNCOw2k8OFqKBt+dla55x4Ubq0J3j7kPnadrasN+3MNuZNfoKhPcIJa1KfOnWCaNamB8Ne+IK9Gb97rGRUYAte3XKE5a+PpHvrW6lfrxHN2/fiockr+CuhEEURERERS9KMp4gT2HTQk4e7eQJwNjaV6UsT+PcAL2pUcOP348m8/k0Cbz3oQ4CfK00C3fjfSR+aV78+6xmT+A/+npUI8QvHBVdiks7j51nRzlk35N63PmEAG3ix7YvEPLGUdwekH+jqk+mQV1uXS2HLq8M41WUYj08dQQVO8/PnU3h7xH3w/SrGBbkBwfTuG8gXXzzH+Lpv8sygFlTyzDm7tONf82D/5zgYNJKnZr5IHZ8L/N+yWUy9ewgxi5byZHDmc2bPsufjcaz/uywDR05ieLUyJJ7+nf9v787joir0/4+/B4ZlEAVRFBEVzQ3cElzIJcxWl9BEy9TMsjLL0upW1i3bvGWmqeW9/vR+y6tmLtW913Irc2+PMjNbtNSuC2iJIMog2/z+QFSUbXDOzGF8PR8PHw+dmfM5n/OBOfD2LJNi76DGkqTLlJQUq5lzV2tr3rXqXXxQOneL1mw4qZgx/XWZk9OrfH+Vnd+5CpV74k/t+Xy+Xl8tdXnkNsU7uV5LDbtSf7OoXfKDGtWykeoG5elgylJNn/6U7siur00zrlWwJOkP/ffBW7SyeX+Nf2akWodbdXjbMk2fOk53ngrXR5O6qIwvEQAAqEYInkA1Z7FYdGNnfzWtX3RN5/rv89U33l9Nwov+HdvIqtljzr7Vh3TzV4695HE3hxzysfgo1f670nL+p/TcwzqSc/YGQV3rXCPJUumevnuxh6JfLO2ZBuf83aawqCiFKUw2SfbQSEVFlXbtYWVfJ2U3v0NzXx6liNP/7ty9mU727q9/vr5Gd/+jv2ooQF0ef1Ov5jykFyYN0YpXWqhH3wG6afBg9Y2L0NmTlHO1YeZL2mobqqXzn1BCYNGj8QltVbCrp6bMfF+j5w9RyDmv/+KHKP13zRNqX5ySOsarxzm9NUtKUptps7VqS656X130oryta7T+RGvd1795mbMsnTP9VX5+53/dfOrE645XVmpi3+jTR4idWG9woibOSyxRv2N8guoe/FpDV27STl2rrqcfP1ZroFYsflLti79N47uozv4vdMuaD/XTpC7q4OR0AKC64uNU4M041Rao9izqHnM2WGaeLFRYcNkhMbKOj5rUK/nWD/MLV2ytzjqen67MvKP649Qh7T3505k/DodzHV02dLoWLFhQ4s/0oc4e03Ne0ysSzoROSZJPW/VODNfJHTtOn/IqKaCZbnpxhT7dslxT7+qswi/n6aFBPXTl8Gn69M/iF+3Q1q0ZCu3V50y4KtJAnTo3VG5Kinact+4mNySdDZ2laZykpA4ntW7V5tOn2+Zr65qPdaLNjerX1Nktdb6/ymg+/HUtXbpUS5e+pfn/mKIHrziuJQ/fpRc2Fp9Ge7Hr9VWLFk2l9HQdPefRRtf3Oxs6T7+uadPGUlqaUquwHQBQXTWq1cjTLQCG4YgnUM05HIV6flm2Hk+2KcBqUctIX23bm18ijK5MydO1l1sVYLVo7bd5CvQt0BXRZ2v4+wbK3zdQqTn7XNJTzWZdlZgYVeKxA7/UdEnt8tSuHVb6Y2lpSpPU9pzHbQ27aNC4Lho07mn9vmG2HpkwW/c+2Vxb5g1UbaXraLqUseQ2RS8pbU1tlHXeI/XqVXRqcqSSBsRryozTp9taPteajzPVfkw/NXFqKyVVob/KuODmQn2vUq3BCXr+xQUaedVDau7MeguPatt7C7Xkw8/0/e79OnIsS9k5p5SXXyDphhJLRdSPOL+QLBaL5Cg85/pcAPB+DWY0UOpD/JcbvBPBE/ACIbZCfb2rQD1irerV1k9bdubptZU5atvYV1/tzldIkEUB1qITSTd8n6d7ep3ycMfGOJ6ZKalkAExPPyrVqqVaZS5lU5Pej+rZEavVf8En2qGBulIhCg2RInrN1JujW5ayTC1V5f+kG/RPUqfJU7VqS64SA9fq44x2Gts/uuIFL2BMfxeqr9ata0vLf9fvkppXer3Hte7RfhrzUX2NmDheUybGqHH9EAXbApW+aKgSniu5lMWHk28AAPB2BE/AC/Rtl63pay3q2MxXNQItemZokL7bU6DUjEIldfFTbKOit/pH2/IUHOhQo9ql3y7Uz8dfQb4XHpm0VP7yziqooaAg6ZDdftGv2/3pJzo8voXqFz9Q+L3Wb/pTtk6d1Kbc2tk6cCBdCgk9fV1kB12ZGKrFuw7I1nqgmroqF9Xrp6Suz2n6h5/qm5oblNFhlPpXKSFWpb/KzvlcB7R9R7oU2UCRTq33W61dnaaGI+fq+eHnXqGZpZSUnyV1d6IHAADgDQiegBdoHHZK/ToGaNISux67KVD1Q33U8TJfdZTvmdd8tC1P//4iVy8kl30SZrMabdSsRvkRzfViFR8XoP8sfUWLY+9UuxCH7Jn+ir6y7dkAWcnX2X6coxETTml8crwilKbPF76s+YdaauzrfVRDkrRJLwxcrJxe3XR5s0iF17YpL/OAdm54W/PfL1SPySPUXpIUoGseflq9kp7QyNHZGjesh1qE+yv7aKr2bt+qnRF3a8qwFlXY1jrql9RNz702X7Nrpqrjzf1PB7pzOZSfc1JZWZnKkZSbdVTpx2uoZnCQ/M4Evar0V/H8Tvy+TV98cUBSoU5lHNC2D+Zp7vYa6jb51tMf/1nZ9bZUmzZ+WrF+oZb3ukudInyVlbZLn70zR0u+9OPmAgAAXIIInoCXuC7muAKswXpikUMdon2V3M1fUXV89NG2PH28PU9WH4eeHpClWgF5FRdzq3Dd8tJs7Xl6mmbdP1THLaFq0HCQXrogeFb8uk4P/1199s7Sq+Nn6X9ZvqoX20sPL5yksR2K7/oTqZgY6e0P5mntHxk6ni0Fh0coqlV3TVg0R8N6Njpz715LVLLmraynf746R/98coF+P5avwNB6ahzbVTfee+G1pJUV1meAuj39F21J66hJ/Rqe92yBVtzbQuPXnnNl47QbFDdNkqWFHv5onR5sUdX+Kp7fr4sf0NDFRX/3DaqjqMvidPvr/9ADNzY+U6Vy643U7bPmKn3yLL12f7LSjheqZoNWumLABC1+e7fuvq4qtz4CAADVmcXhcO5+lWlpaYqIuPBGEM6y2+2y2WwVv9BNdVxZy1tn5MpZM6PyVTSfzZs3Kzq69GsD8wp89N2BIEXVtapRXR9t+bFAjUJPlXl6rXdYrbHR9+nY8ylaOrKup5uBG+3bt0+JiYkVv7AM7IsqxozK56r5SObbNrPNyIy/87l6Rst/XK6bY2/2eD9mnLXZvo/MVkcy/4w44gl4GT/fQnVuckKSlG+Xujn9UR3Vl5P/jwYAgKlcTOgEzM5qd+pGE0Wqskx1qOPKWtRxXy3qAJCq/p4x23vWbHVcWYs67qtFHffVcmWdW1fcqiUDSv28Ko/04ypm68lb67iylhF1rM4eRs3MzDTVYWUzngrgrTNy5ayZUflcNR/gUlKV9wz7oooxo/K5cn9ttm0z24zM+Dufq2f0ZeqXF1XPbNvlylpm+z4yWx3J/DPiVFsAXqCv5uzb5+kmAAAAUAbuag8AAAAAMBTBEwAAAABgKIInAAAAYALdorp5ugXAMFzjCVRT+7im0aPy8gr1zTcZSkgI83QrAAAv8d6Q9zzdAmAYgidQDSUmJnq6hUvenDnfaN68nXrkkQGyWjl5BABw8aZ/MV2PJDzi6TYAQ/DbEgA4KTe3QC+99In27DmmhQu/93Q7AAAvMe3zaZ5uATAMwRPwcmb+IOGLkZaW5pI6VennjTe+0/79xyVJf/vbJ8rPL6xyLVf1VBpPzsjIOq6uBQAAjEfwBAAnFB/tLMZRTwAAgIoRPAHACece7Sx27lFPAAAAXIjgCQCVdP7RzmIc9QQAACgfwRMAKqm0o53FOOoJALhYqQ+leroFwDAETwCohLKOdhbbs+eYFi/e6caOAADe5rMDn3m6BcAwBE8AqITyjnYWmzr1S456AgCqLPmdZE+3ABiG4AkAFajoaGexvXszuNYTAACgFFZPNwAA1cGWLbdf8FiXLm/oq69Gn/l3Tk6O6tSp5c62AAAAqgVLamqqw9NNAEB11KHDYm3fPtzTbQAAvESHxR20ffh2T7cBGMIaERHh1AJpaWlydpnS2O122Ww209RxZS1vnZErZ82Myueq+Ujm2zazzehi+vHx8SnRAzNyTx1X1vLWGbG/dl8d9tcVM9v3kCtruXpG5/9c8VQ/Zpy12b6PzFZHMv+MuMYTAAAAMIH3hrzn6RYAwxA8AQAAAA9zyKFuUd083QZgGIInAAAA4GFTP5uqv6f83dNtAIYheAIAAAAetmnfJsU3iPd0G4BhCJ4AAACAB50qOKXvj3yvTg06eboVwDAETwAAAMCDNu7fqKuir5LVx+rpVgDDEDwBoIoCA636+utDnm4DAFDNfbD3Aw2JGeLpNgBDETwBoIqWL0/WzTe/R/gEAFyUUbGjdP1l13u6DcBQBE8AqKLOnSO1fHmyBg16R7fd9l+tXPmrcnLyPd0WAKAaOJh1UP2X9ldKaoo61++sQGugp1sCDMWJ5ABwETp3jtTu3ffrww9/07JlP2j06NXKysr1dFteLzjYXz16NFKvXtFKTGyiTp0ayGrl/1Krs/zCfKWkpig6JFr1g+ur8azGOnD8QInXPNnjST2V8JRu/fetWrpzaYnn4hrE6Zu7vtGC7Qs06v1RF9Q/8sgR5RfmK3JG5AXPLRq4SCPajdDl8y7X9sPbSzw3vN1wvTXwLU1cP1Evf/ZyiefqBtXVjuE7tHHfRvVe1PuCul/f9bU6NeikgBcDlFtQcr8w+arJ+muPv2rAsgF6f9f7JZ7r2bintty+Rf9I+YfuX3P/BXVPTDyhtBNpaj67+QXPvTfkPfVp0kct/95Su9N3l3junrh7NLffXD2w9gHN/np2iecahzTW7w/+rlW7V6n/0v4X1N157061rNNSfn/zu+C5V697VQ91fUjXvHWN1u9dX+K56y+7Xv/q/S9N+3yaHv340QuWLXy6UD8c+UHt57a/4Lk1w9bohstuUNTMKB3MOljiuQldJ2jGdTM0+oPRevO7N0s817pua/009ie98+M7uvm9my+ou/eBvbLJpqBpQRc8N7ffXN0Td4+6ze+mzw98XuK5m1rfpH8P+bee3/K8ntn8TInnbFabsp/I1pcHv1TCmwkX1N18+2Zd2fhK1X6ltjJyMiRJdWx19Mo1r6hTg05KS0u7YBnA21gcDofDmQXS0tIUERFx0Su22+2y2WymqePKWt46I1fOmhmVz1Xzkcy3bWabkRn3Id46I1fOOivrpHbuzNDmzb9r06Z9+uGHP/T884m6447LnarjrTOqbvvr+d/N16TNk9Q2vK3+dtXfFNcgrkp1XNWPM9hfV8xs7zNX1vLWGZlx1t46o+q2v76YOhzxBABUO1arjxISGiohoaEef7ybDh7M0j33rNS77/6kefP6q2HDmp5uEZVwMOug7ll5jyTpizu/UMOaDT3cEQDAKJyXBACo9ho2rKlVq27V4MEx6tHjXzp2LMfTLaES/v3zvzU4ZrBW3bqK0AkAXo4jngAAr3HHHZdr375MzZz5pZ57LtHT7aAM36Z+q8iakXqg8wOebgUA4CYc8QQAeJUJE7rqzTe/U35+oadbQRmS303WoSw+hggALiUETwCAV6ldO1Bt24YrJSXV062gDDn5OeXeQAgA4H0IngAAr9OrV7Q2b/7d020AAIDTrHa73emFqrJMdajjylrUcV8t6rivFnXcV4s6F1crISFCf/vbp3rwwY5u68lb67iyVnEdh8NxUTXNNiMzz5o6xteijvtqUcd9tYyoY3X2M1oyMzNN9Zk1ZvycIW+dkStnzYzK56r5SObbNrPNyIz7EG+dkTtn3b17tH74YUWF6/PWGZl9f22xWKpc02wzYn9dMbO9z1xZy1tnZMZZe+uMzL6/dmUdTrUFAHgdq9VHDoenu0BZUh/i+lsAuNQQPAEAgFt9duAzT7cAAHAzgicAAHCr5HeSPd0CAMDNCJ4AAAAAAEMRPAEAAAAAhiJ4AgAAAAAMRfAEAAAAABiK4AkAANzqvSHveboFAICbETwBAIBbdYvq5ukWAABuRvAEAABu1WBGA0+3AABwM4InAAAAAMBQBE8AAAAAgKEIngAAAAAAQxE8AQAAAACGsnq6AQCAeWzevNnTLbjMTTfVq9T2/PLLL27opnpz9YxuqneTV32vRUREeLoFADA9gicAoITo6GhPt+ASjz/uHdvhjR6PftzTLbjMvn37PN0CAFQLVrvd7vRCVVmmOtRxZS3quK8WddxXizruq2W2OgAq5or3m9ne+95ax5W1qOO+WtRxXy0j6lhtNptTC2dmZsrZZcpqwkx1XFnLW2fkylkzo/K5aj6S+bbNbDMy4z7EbDMCUDkX+34z2z7EbPsi9tfu68eMs/bWGV1Kv19zcyEAAAAAgKEIngAAAAAAQxE8AQDOs/Djo/pZrbHR0bplwR+ebuTiHF2sW5pFKzq66E+13x4AuERwV1sAQIXyCy3a+Estfbrbqn7x/uoRa9Xzy7MVEliovu2y1TjslBu6WK2x0fdpTanP9dE/9s1RXzd04fUcmdq5Yr7mvr1a3/52UEeOF8oWGqZ6jWLVqfcIjR+XKI9+eEid4Vr26xBlHfu3HoyfqGwXls498K1+UFvFRfm7sCoAQCJ4AgAqcDzHqpdW1lLDuj4ac72/ouv5SpIeH2TTV7sKNH2tRf06Bui6mONu6eeyodM1qU/d8x4NVxu3rN3b5enbqUN087zj6jLyDo0f2VShfjk6dni/fvnmM+086ac6nm5Rknz8VbNOLQVKLgyehfpi9p36e8w6Lbs93GVVAQBFCJ4AgDIVyqKZ62rqmsv91Tfer8RzAVaLesZaFdfMV88ssSvAGqzEFicuqJFdcEJHT6Up1K+OavrVvuieajbrqsTEqIuug9J8peWLd6nu8KVa+ExCyV8SRt7vqabcw7FDm7dmSDGebgQAvBMX6QAAyrTh52DVqel7JnT+mlqg55Zma9zcbE39j12H0gtVI9CivwwM1LLP/ZVbUPLHyqnCHG04/J7+OHVQm/5YoWO5R9zQ9WqNje6hl3fkaf+6GRqb1F3tWzdXy7ad1fuuRdp7+lWOw19pwcsPaXjfRHVp30rNm8eoY7e+GvnXt7TjxLm1uunF95dp9BVtFJ88S9/97yNNvOFytek0QM9t/LPk9u5ZrSljblS39q3UolVH9br5Eb2Zkn762W16/orLdO/7xacl52vdw+3U+r6Vyil+ZM0DanHFC9p++t8ndi7X0yOvU5c2LdSiTVfdMHqyVv6Wo5Iqt72lOfHNK+oX01HD5mzXSUmSn/z8JIuPT6V+QSh/e53p7zfNvC5a7R9ep7wSy+Zq7YNtFH39TP1WiX6q1t83mjXkeiW0TdYbB6Uvn+l85vrR6OixWl2F9QIALsQRTwBAmbb+4q8x1xdd73Yks1DTV+RoYnKgmoT76sf9+XrxnRzNuCtIEbV91D7aV98fDFKnxmePembk/qkw//qKq50oi3yUkXdUtf3ruaHzI9r+fxO08X8hGnz3ZN0RVUu5qT8qxd5BjU+/wlLDrtTfLGqX/KBGtWykukF5OpiyVNOnP6U7sutr04xrFSxJOqTl//ezJr38iBwPvqz7Ridq0GMzNHruvXpt6hLdftUDipbk2L9Mdw16Qr/E3K1HZj6l5kHH9cP7s/TKrcOU8e4KPdyhreLifLXx591SUlup8Gtt3BakkJMb9WV+fyVapV9//lk+8TcoVlL+7n/qtiEv60j3cfrrnG5qUHhQny58RROSf9HJDxbqlkYWp7b3fLm75uvuu99V5NPL9PdhLVX0Ve6gGwdE6623ntCjLabosSGdVb+Myx0r3t4AJ/q7TElJsZo5d7W25l2r3sUH13O3aM2Gk4oZ01+XOfkdUPn+YnXbjDeUrE16qsdTynhohWYnF59QHGSOU4sBwAsQPAEApbJYLLqxs7+a1i+6pnP99/nqG++vJuFF/45tZNXsMWd/jAzp5q8ce8njVQ455GPxUar9d6Xl/E/puYd1JOfAmee71rlGkkXO+O7FHop+8fxHz7+5UK6++CFK/13zhNoXB6eO8epx7iLBiZo4L7FElY7xCap78GsNXblJO3Wtup5+PLT7IA26MkY+XV7QFks/PXDtVUr9taVem7VXeyVFK1cbZr6krbahWjr/CSUEFi0Xn9BWBbt6asrM9zV6/hDFx7XT75/9IrvayrZ9gzZGDdewnEXa9K1DiV3y9PNPe9UuIU5+smvVrJnaFn6nPpg7Qe1OH37s0rOZTvYaoJdmfKyBr16rs9GuEtt7mr+/vwoPvq8H71ygBs+/q6n9G53zy0CAujz+pl7NeUgvTBqiFa+0UI++A3TT4MHqGxehsydbV257Q5zor1lSktpMm61VW3LV++qiF+VtXaP1J1rrvv7NS9mS8jjTn01hUVEKU5hskuyhkYqK4hpPAHA1TrUFAJTBou4xZyNJ5slChQWXHRIj6/ioSb2SP1bC/MIVW6uzjuenKzPvqP44dUh7T/505o/D4XxXlw2drgULFpz35wF1Oe91TW5IOhtyKs1XLVo0ldLTdfScR+vUrSvJqpo1baodEaEASTWCgqScnNOnye7Q1q0ZCu3V50zIKdJAnTo3VG5KinZIahAXp/o//6zdkn7asEGB7a9WYscAbdr8o6Td+vnncMXHN5C0Q59/dlLhva4+EzqL2uuga66qq4ytn2hHFbc32PGDXhgzV/UnL9f0EqHztIBmuunFFfp0y3JNvauzCr+cp4cG9dCVw6fp0zNnFldue53qr3GSkjqc1LpVm0+fbpuvrWs+1ok2N6pf04q3qyTn+wMAGIsjngCAUjkchXp+WbYeT7YpwGpRy0hfbdubXyKMrkzJ07WXWxVgtWjtt3kK9C3QFdFna/j7BsrfN1CpOftc1ldlby5Ur14Fp/QWHtW29xZqyYef6fvd+3XkWJayc04pL79A0g0lXmq1nt1mf/9z05NDRdk5XUfTpYwltyl6SWkra6MsSWobr7g/39auk/t1ZOMRdXm0ldoWJOjIq5v1v/sj9MuReA2NlaQMZWRKdcLCLqgUFlZHOpauY85uryTJRykzxuvY8WANOFV+6rc17KJB47po0Lin9fuG2Xpkwmzd+2RzbZk3ULUru71O9ReppAHxmjLj9Om2ls+15uNWXQmGAAAc60lEQVRMtR/TT00qsWUlOd8fAMBYBE8AQJlCbIX6eleBesRa1autn7bszNNrK3PUtrGvvtqdr5AgiwKsRSdgbvg+T/f0csfnebrCca17tJ/GfFRfIyaO15SJMWpcP0TBtkClLxqqhOecrRei0BApotdMvTm6ZSnP11IjSfKLU1zbl7T3p2/0896eGpxglbUgUd1+W6FtO1vo17ZxivOTpNoKqy0dTT//RjhSevpRqXaYqnZ/4ELZEl/SintS9ciwEXoheLkmda+okk1Nej+qZ0esVv8Fn2iHBurKym6vkxr0T1KnyVO1akuuEgPX6uOMdhrbP7riBS9gTH8AgKojeAIAytS3Xbamr7WoYzNf1Qi06JmhQfpuT4FSMwqV1MVPsY2Kfox8tC1PwYEONap9/h1Xi/j5+CvIt+YFj1ucu7zThb7V2tVpajhyrp4f3uGcx7OUkvKzpO5O1uugKxNDtXjXAdlaD1TTMi9kqae4OOmNNd/p5y5XqWeAJPVUr7iXtG2Nn3zjb1DR1YXt1bNnLS3cuE7bJ3VVB9/Tixds17qNf6pWt25q62SHxRq0u1yRLa/VnBm7NXDsKNVa+LYmXF6jgqWydeBAuhQSevq6yMpur5Pq9VNS1+c0/cNP9U3NDcroMEr9q5QQq9JfDQUFSYfs9qqsEABQAYInAKBMjcNOqV/HAE1aYtdjNwWqfqiPOl7mq47yPfOaj7bl6d9f5OqF5LJPXmxWo42a1WjjjpYrqaXatPHTivULtbzXXeoU4austF367J05WvKlXxVugBCgax5+Wr2SntDI0dkaN6yHWoT7K/toqvZu36qdEXdryrAWkqS28R2049kP1fi++0/fNTdUiYn19fqbP6rrc7Fn6l09/jEl9H9WY+8J1uO3d1MDHdJn/5qqBeld9PSEaxVYRieVFdrzGb3xyO26adTdCln+L93R0l/SJr0wcLFyenXT5c0iFV7bprzMA9q54W3Nf79QPSaPUHsnt9c5ddQvqZuee22+ZtdMVceb+yvygtc4lJ9zUllZmcqRlJt1VOnHa6hmcJD8znzhqtJfrOLjAvSfpa9oceydahfikD3TX9FXtlX9KmwJAKAkgicAoFzXxRxXgDVYTyxyqEO0r5K7+Suqjo8+2panj7fnyerj0NMDslQrIK/iYqYRqdtnzVX65Fl67f5kpR0vVM0GrXTFgAla/PZu3X2d87eesUQla97Kevrnq3P0zycX6Pdj+QoMrafGsV11471nr9X0i4tT3bQ96nXV2TunRiUmKujFTxQXd/a+sT7RI/TmezU07aX/pxfuna1MS20169xPL7/3qJJdcojRqstu/4dm7x6oO0fcr5B352hQ40jFxEhvfzBPa//I0PFsKTg8QlGtumvCojka1rPRmXsQV3Z7nRXWZ4C6Pf0XbUnrqEn9Gp73bIFW3NtC49cWnn1o2g2KmybJ0kIPf7ROD7aoan/huuWl2drz9DTNun+ojltC1aDhIL1E8AQAl7A4HM7dUzAtLU0REREXvWK73S6bzWaaOq6s5a0zcuWsmVH5XDUfyXzbZrYZmXEf4skZbd68WdHRpV9Tl1fgo+8OBCmqrlWN6vpoy48FahR6qszTa4FLwb59+5SYmFjxCyvBbPsQ9tfuq2O2GZlx1t46o0vp92urvQrXMlRlmepQx5W1qOO+WtRxXy3quK+W2epIkp9voTo3OSFJyrdL3Zz+iAvAu7ni/Wa297631nFlLeq4rxZ13FfLiDpWZ9NsZmamqdK9Gf9Hxltn5MpZM6PyuWo+kvm2zWwzMuM+xGwzAlA5F/t+M9s+xGz7IvbX7uvHjLP21hldSr9fu+o+dAAAAAAAlIrgCQAAAAAwFMETAAAAAGAogicAAAAAwFAETwAAAACAoayebgAAYC779u3zdAs4T2GhQz4+Fk+3AQBAlRE8AQBnJCYmeroFlGLRou9Vt26Q+vRp7ulWAACoEoInAAAmVlDg0OTJnyg0NIDgCQCotrjGEwBQLrvdbqo6rqyVlpbmkjpGzujtt3do166j+uqrQ1qz5le39iNVjxl5so6r5gMA3o7gCQCASRUf7Sz27LObPdgNAABVR/AEAMCkio92FnPmqCcAAGZC8AQAwITOP9pZjKOeAIDqiOAJAIAJnX+0sxhHPQEA1RHBEwAAkynraGcxjnoCAKobgicAACZT1tHOYhz1BABUNwRPAABMpKKjncU46gkAqE4sqampDk83AQAAinz99WFNmfJ1icdSUg6rU6f6F7z2xRe7q1Wr2u5qDQCAKrM4HA6ngmdaWpoiIiIuesV2u102m800dVxZy1tn5MpZM6PyuWo+kvm2zWwzMuM+xFtnZMZZV5cZNWgwQ6mpD7m9H6n6zMhTddhfV8xs30OurOWtMzLjrL11RpfS/ppTbQEAAAAAhiJ4AgAAAAAMRfAEAAAAABiK4AkAAAAAMBTBEwAAAABgKIInAAAAAMBQBE8AAAAAgKEIngAAAAAAQxE8AQAAAACGIngCAAAAAAxF8AQAAAAAGIrgCQAAAAAwFMETAAAAAGAogicAAAAAwFAETwAAAACAoQieAAAAAABDWe12u9MLVWWZ6lDHlbWo475a1HFfLeq4rxZ13FerOtRxOBxO12fW1a+OK2tRx321qOO+WtRxXy0j6lhtNptTC2dmZsrZZcpqwkx1XFnLW2fkylkzo/K5aj6S+bbNbDMy4z7EW2dkxllXlxlZLBan6rO/dl8d9tcVM9v3kCtreeuMzDhrb53RpbS/5lRbAAAAAIChCJ4AAAAAAEMRPAEAAAAAhiJ4AgAAAAAMRfAEAAAAABiK4AkAAAAAMBTBEwAAAABgKIInAAAAAMBQBE8AAAAAgKEIngAAAAAAQxE8AQAAAACGIngCAAAAAAxF8AQAAAAAGIrgCQAAAAAwFMETAAAAAGAoq6cbAAB4xubNmz3dgin88ssvnm6hQjfdVM+jX6/qMCNPKm0+iYmJHugEAMyL4AkAl7Do6GhPt4BKePxxvk7Vyb59+zzdAgCYjtVutzu9UFWWqQ51XFmLOu6rRR331aKO+2qZrQ6AqnH2PWi297631nFlLeq4rxZ13FfLiDpWm83m1MKZmZlydpmymjBTHVfW8tYZuXLWzKh8rpqPZL5tM9uMzLgPMduMAFSdM+9Bs+1DzLYvYn/tvn7MOGtvndGl9Ps1NxcCAAAAABiK4AkAAAAAMBTBEwBQrpOnLJ5uoWK5W/VUzwTd/9+jnu7EQKs1Njpatyz4w9ONmM/RxbqlWbSio4v+MCMAMB/uagsAKKGg0KKPdgZo008ByrT7yNdHyssvVGxkgQbE2dU0vMDgDlZrbPR9WiNJFqtstcIV3b6nku4cpzuvaqyAMpezyOrna3BvVZd74Fv9oLaKi/L3dCvOc2Rq54r5mvv2an3720EdOV4oW2iY6jWKVafeIzR+XKIiPNlfneFa9usQZR37tx6Mn6hsF5au1l83ADARgicA4IzMbB+9vCpY0Q389VhygCLDik6MyS+Qvvk1X6+ts6p3TI5u7JhjeC/Nh7+uyf1ClXXkV321aqFeu6Of1j2ySG8/cLkCz3+xf09N3vq54T1VXaG+mH2n/h6zTstuD/d0M07K07dTh+jmecfVZeQdGj+yqUL9cnTs8H798s1n2nnST3U83aIk+firZp1aCpRcGDyr89cNAMyF4AkAkFR0pPPlVcHq0zlI13TwK/Gc1Vfq2sqqdtHBenaJVCuoUImtci+okV1wQkdPpSnUr45q+tW+qH6Cm3RUQrcoST117cBb1H/aLUp+9QFN775Rf42rZj++HDu0eWuGFOPpRqriKy1fvEt1hy/VwmcSSv7iMPJ+TzXlHtX66wYA5sI1ngAASdJHO/0V3cD/TOj8NbVAzy3N1ri52Zr6H7sOpRcqKMCiiYODtfzLINlzS177eaowRxsOv6c/Th3Upj9W6FjuERd2F6QO4x/ToNr79faC9corfvjwAg2u5LV9BQfWa/rYAeoRF6uWrdurS68BuufFD3XozCtWa2z0ZRr739+16dV71SehjVq2bKMr+o3VzM2pKjynluPwV1rw8kMa3jdRXdq3UvPmMerYra9G/vUt7Thx7lq/0awh1yuhbbLeOCh9+UznM71GR4/V6nNrHtuuZS/er8G9O6ttq+ZqHtNenXr20fC/vq+D57zOr2Cf/vvCaN2Q0E4tW7ZRpyv7656XV2nPeQehT+1ZrSljblS39q3UolVH9br5Eb2Zkn7eVFZrbHQPvbwjT/vXzdDYpO5q37q5WrbtrN53LdLeojXKz0+y+PhU6pcG1633N828LlrtH1539ustScrV2gfbKPr6mfqtEv1Urb/Kf90AAJVTzf7LGABglE0/Beqx5KIrKI9kFmr6ihxNTA5Uk3Bf/bg/Xy++k6MZdwUpLNiiTi2s+mqPnxJbnz3qmZH7p8L86yuudqIs8lFG3lHV9q/nugb9EtSji1XLU1L0k65Xe0mqf7ve3X2rsjIqurZvv/7v/jGabx2lF19/Vo0DTujQLyn69ETN804TLdCnz4/UoWtH6oFXRitcqfp80VS9Nvp26YM1mhBTdA2ppYZdqb9Z1C75QY1q2Uh1g/J0MGWppk9/Sndk19emGdcqWJIUq9tmvKFkbdJTPZ5SxkMrNDu5eI1BZ9d9ZK3G3zROawq76vZ7n9F9rRsq1JGhAz+naGdwK0We0+H3s8bol9YDNeHZUWodbtXhbcs0feo43XkqXB9N6iJ/SY79y3TXoCf0S8zdemTmU2oedFw/vD9Lr9w6TBnvrtDDHc69UvaItv/fBG38X4gG3z1Zd0TVUm7qj0qxd1BjSVIH3TggWm+99YQebTFFjw3prPplXO7o2vVepqSkWM2cu1pb865V7+KD8LlbtGbDScWM6a/Lyvx6X2x/lfy6AQAqjeAJAFBBoUWZdp8z13Su/z5ffeP91SS8KGjFNrJq9pizPzLaNPbTzj3WEsHTIYd8LD5Ktf+utJz/KT33sI7kHDjzfNc610i6mDvk+ikiIkza8IdKHNf0rcy1fXu0a3e+Gt83TEndm0mSLu/UU31LeWV28zs09+VRZ26W07l7M53s3V//fH2N7v5Hf9WQpOBETZyXWGK5jvEJqnvwaw1duUk7da26SpJsCouKUpjCZJNkD41UVNT51wrmacurf9X7x3vq1fXzNeicrB6XcJWSznt1VthgvbX4SbUv/nLEd1Gd/V/oljUf6qdJXdRBudow8yVttQ3V0vlPKOH0BbHxCW1VsKunpsx8X6PnD1HImYq5+uKHKP13zRNqXxwoO8arx5nnA9Tl8Tf1as5DemHSEK14pYV69B2gmwYPVt+4CPmdU8e165WaJSWpzbTZWrUlV72vLnpR3tY1Wn+ite7r31zOcaa/ynzdAADO4FRbAIBO5UsBVseZf2eeLFRYcNkh0RZgkT2v5I+QML9wxdbqrOP56crMO6o/Th3S3pM/nfnjcJRRzAkFBQWSr6+cv3dtvPr2ra+fZg3XsEnztWnPCZXVTtMrEkreodWnrXonhuvkjh2nTwEti69atGgqpafLuQ912aGNG4+qxg0jS4TOsjS6vt/Z0Hl6vU2bNpbS0pR6ut7WrRkK7dXnTLgq0kCdOjdUbkqKdpxXs8kNSWfDX2kCmummF1fo0y3LNfWuzir8cp4eGtRDVw6fpk//PLsdLl9v4yQldTipdas2nz7dNl9b13ysE21uVL+m5SxXKuf7AwC4Dkc8AQAK8nfInutQfkHRjYRaRvpq2958dY85+2NiZUqerr3cqgCrRYczChVes+THqvj7BsrfN1CpOfsM6tKuQ4cypIiIKnx0R7CufnmVlnd4TTPnTdWoRdPU/Pqxmjz5fiXULRmwa9cOu2Dp2rXDpLQ0pUlqK0mFR7XtvYVa8uFn+n73fh05lqXsnFPKyy+QdIOTvR3Vn0elyMgGlXp1RP0Lt95isUiOwtPXoabraLqUseQ2RS8prUIbZZ33SL16lTsl2tawiwaN66JB457W7xtm65EJs3Xvk821Zd5A1TZkvZFKGhCvKTNOn25r+VxrPs5U+zH91KRSHZ/L+f4AAK5D8AQASJJiIguU8mu+ElpZ1autn7bszNNrK3PUtrGvvtqdr5AgiwKsRSdWfrIzV8O65lVQ0cVObtL6LwpUu38XtajK8r511fm257V4+CP6ec0bev656Rr1YKg2vz1C9c952fHMTEklA1F6+lGpVi3VKnqF1j3aT2M+qq8RE8drysQYNa4fomBboNIXDVXCc842FqraoVJa2mFJrSt8tcWnopOVQhQaIkX0mqk3R7cs5flaauRsixewqUnvR/XsiNXqv+AT7dBAXWnQehv0T1KnyVO1akuuEgPX6uOMdhrbP7oKldwxFwBAWQieAABJ0sA4u2ats6p9dLCCAix6ZmiQvttToNSMQiV18VNso6IfGVt/zJfFka+WEfml1vHz8VeQb80LHrdczOWdjqNa/9wUrclpofGjelbhVNtz+ISodb+H9cqhreo+8zv9opLBc/enn+jw+BZnHyv8Xus3/Slbp05qI0n6VmtXp6nhyLl6fniHc5bMUkrKz5K6l7LSGgoKkg7Z7aU810GJibW1cO1bev+xRCVd9J1rOujKxFAt3nVAttYD1dSwi2qydeBAuhQSevq6SIPWW6+fkro+p+kffqpvam5QRodR6l+lhFiV/sr7ugEAnEHwBABIkpqGF+jqmBw9t0R6fHCwwoIt6niZrzqeE/O2/pivtzZm65mBZZ+U2KxGGzWr0eai+znx+zZ9vnWXju7foU3vvqX/bitUj2cXa1zMuYnBofyck8rKylSOpNyso0o/XkM1g4PkVyJYfK7Z4zYp+PoExTQKk+XPHVr2zk4Fxd9ywUc02n6coxETTml8crwilKbPF76s+YdaauzrfYpuLKSWatPGTyvWL9TyXnepU4SvstJ26bN35mjJl35l3DwhVvFxAfrP0le0OPZOtQtxyJ7pr+gr26q+/HX1X57XDZ+M11+SbtPOe4fqilYNFWo5oT8P/abtXxbqqhfvUFylJxegax5+Wr2SntDI0dkaN6yHWoT7K/toqvZu36qdEXdryjBnjhlv0gsDFyunVzdd3ixS4bVtyss8oJ0b3tb89wvVY/KIojsMu3y9xeqoX1I3PffafM2umaqON/cvcZffIpX5PqhKf+V93QAAziB4AgDOuLFjjmraCvXYfKlTC6tiG/upVqBFB9IL9cnOXPkoX88MzFKdYBfcKagCvy5+QLcuDVDNsEi1jE/Sc8vH6JbO9c75wVWgFfe20Pi153zC5rQbFDdNkqWFHv5onR48kyPqqJ7/ds372zIdOnpSlpBIxfR4SG8+NVTn36u008N/V5+9s/Tq+Fn6X5av6sX20sMLJ2lsh+K74ETq9llzlT55ll67P1lpxwtVs0ErXTFggha/vVt3X1faLWrCdctLs7Xn6Wmadf9QHbeEqkHDQXqpOMA0uFH/WN1QS/4+T++9+YzeOpihUz42hdRpqNbxt5V6993yWKKSNW9lPf3z1Tn655ML9PuxfAWG1lPj2K668d4Lr2EtX6RiYqS3P5intX9k6Hi2FBweoahW3TVh0RwN69nozL2KXbves8L6DFC3p/+iLWkdNalfw/Oerfz3gfP9VfB1AwBUmsXhcO4+g2lpaYqIcP62Duez2+2y2WymqePKWt46I1fOmhmVz1Xzkcy3bWabkRn3Ie6a0ebNmxUdXfq1cvZci77aY9VvR/yUk+ejujULdHnjvDJPr/UOqzU2+j4dez5FS0fW9XQzqMb27dunxMTEil94HrPtQ9hfu6+O2WZkxll764wupd+vrfYqXLdQlWWqQx1X1qKO+2pRx321qOO+Wp6uY/N3KLF1nhJbu/kGQibg5P/HAuVy9j3o6ff+pVLHlbWo475a1HFfLSPqWJ1Ns5mZmaZK92b8HxlvnZErZ82Myueq+Ujm2zazzciM+xCzzQhA1TnzHjTbPsRs+yL21+7rx4yz9tYZXUq/Xxt2rzsAAAAAACRuLgQAwGl9NWffPk83AQCAV+KIJwAAAADAUARPAAAAAIChCJ4AAAAAAENxjScAXML2cU0jAABwA4InAFyiqvIB9wAAAFXBqbYAgHKZ7cOoXVkrLS3NJXXMNiNXzpoZlc9V8wEAb0fwBAAAAAAYiuAJAAAAADAUwRMAAAAAYCiCJwAAAADAUARPAAAAAIChCJ4AAAAAAEMRPAEAAAAAhiJ4AgAAAAAMZUlNTXV4ugkAAAAAgPeyOBwOp4JnWlqaIiIiLnrFdrtdNpvNNHVcWctbZ+TKWTOj8rlqPpL5ts1sMzLjPsRbZ2TGWXvrjNhfu68O++uKme17yJW1vHVGZpy1t87oUtpfc6otAAAAAMBQBE8AAAAAgKEIngAAAAAAQxE8AQAAAACGIngCAAAAAAxF8AQAAAAAGIrgCQAAAAAwFMETAAAAAGAogicAAAAAwFAETwAAAACAoQieAAAAAABDETwBAAAAAIYieAIAAAAADEXwBAAAAAAYiuAJAAAAADAUwRMAAAAAYChLdna2w5kFMjMzFRISYlQ/XoEZVYwZlY/5VIwZVYwZVYwZVYwZlY/5VIwZVYwZVYwZVczsM7LabDanFsjMzJSzy5TGbrebqo4ra3nrjFw5a2ZUPlfNRzLftpltRmbch3jrjMw4a2+dEftr99Vhf10xs30PubKWt87IjLP21hldSvtrTrUFAAAAABiK4AkAAAAAMBTBEwAAAABgKIInAAAAAMBQBE8AAAAAgKEIngAAAAAAQxE8AQAAAACGIngCAAAAAAxF8AQAAAAAGIrgCQAAAAAwFMETAAAAAGAogicAAAAAwFAETwAAAACAoQieAAAAAABDETwBAAAAAIYieAIAAAAADGXJzs52OLNAZmamQkJCjOrHKzCjijGj8jGfijGjijGjijGjijGj8jGfijGjijGjijGjipl9RlabzebUApmZmXJ2mdLY7XZT1XFlLW+dkStnzYzK56r5SObbNrPNyIz7EG+dkRln7a0zYn/tvjrsrytmtu8hV9by1hmZcdbeOqNLaX/NqbYAAAAAAEMRPAEAAAAAhiJ4AgAAAAAMRfAEAAAAABiK4AkAAAAAMBTBEwAAAABgKIInAAAAAMBQBE8AAAAAgKEIngAAAAAAQxE8AQAAAACGIngCAAAAAAxF8AQAAAAAGIrgCQAAAAAwFMETAAAAAGAogicAAAAAwFAETwAAAACAoQieAAAAAABDWbKzsx3OLJCZmamQkBCj+vEKzKhizKh8zKdizKhizKhizKhizKh8zKdizKhizKhizKhiZp+R1WazObVAZmamnF2mNHa73VR1XFnLW2fkylkzo/K5aj6S+bbNbDMy4z7EW2dkxll764zYX7uvDvvripnte8iVtbx1RmactbfO6FLaX3OqLQAAAADAUARPAAAAAIChCJ4AAAAAAEMRPAEAAAAAhiJ4AgAAAAAMRfAEAAAAABiK4AkAAAAAMBTBEwAAAABgKIInAAAAAMBQBE8AAAAAgKEIngAAAAAAQxE8AQAAAACGIngCAAAAAAxF8AQAAAAAGIrgCQAAAAAwFMETAAAAAGAoS2pqqsPTTQAAAAAAvJfF4XA4FTzT0tIUERFx0Su22+2y2WymqePKWt46I1fOmhmVz1Xzkcy3bWabkRn3Id46IzPO2ltnxP7afXXYX1fMbN9DrqzlrTMy46y9dUaX0v6aU20BAAAAAIYieAIAAAAADEXwBAAAAAAYiuAJAAAAADAUwRMAAAAAYCiCJwAAAADAUARPAAAAAIChCJ4AAAAAAEMRPAEAAAAAhiJ4AgAAAAAMRfAEAAAAABiK4AkAAAAAMBTBEwAAAABgqP8Pb7WLv0zt52YAAAAASUVORK5CYII=;" vertex="1" parent="1">
          <mxGeometry x="-20" y="-90" width="926" height="478" as="geometry" />
        </mxCell>
        <mxCell id="BVbNrUToFaA7XdD0m5Om-8" value="javax.servlet.http.HttpServlet#service(javax.servlet.http.HttpServletRequest, javax.servlet.http.HttpServletResponse)" style="rounded=1;whiteSpace=wrap;html=1;" vertex="1" parent="1">
          <mxGeometry x="190" y="960" width="120" height="60" as="geometry" />
        </mxCell>
        <mxCell id="BVbNrUToFaA7XdD0m5Om-10" value="HttpServlet" style="shape=umlLifeline;perimeter=lifelinePerimeter;whiteSpace=wrap;html=1;container=1;dropTarget=0;collapsible=0;recursiveResize=0;outlineConnect=0;portConstraint=eastwest;newEdgeStyle={&quot;edgeStyle&quot;:&quot;elbowEdgeStyle&quot;,&quot;elbow&quot;:&quot;vertical&quot;,&quot;curved&quot;:0,&quot;rounded&quot;:0};" vertex="1" parent="1">
          <mxGeometry x="120" y="388" width="100" height="452" as="geometry" />
        </mxCell>
        <mxCell id="BVbNrUToFaA7XdD0m5Om-11" value="" style="html=1;points=[];perimeter=orthogonalPerimeter;outlineConnect=0;targetShapes=umlLifeline;portConstraint=eastwest;newEdgeStyle={&quot;edgeStyle&quot;:&quot;elbowEdgeStyle&quot;,&quot;elbow&quot;:&quot;vertical&quot;,&quot;curved&quot;:0,&quot;rounded&quot;:0};" vertex="1" parent="BVbNrUToFaA7XdD0m5Om-10">
          <mxGeometry x="45" y="122" width="10" height="168" as="geometry" />
        </mxCell>
        <mxCell id="BVbNrUToFaA7XdD0m5Om-12" value="&lt;div style=&quot;background-color:#ffffff;color:#080808&quot;&gt;&lt;pre style=&quot;font-family:&#39;Fira Code Medium&#39;,monospace;font-size:10.5pt;&quot;&gt;service&lt;/pre&gt;&lt;/div&gt;" style="rounded=0;whiteSpace=wrap;html=1;" vertex="1" parent="1">
          <mxGeometry x="-90" y="360" width="120" height="60" as="geometry" />
        </mxCell>
        <mxCell id="BVbNrUToFaA7XdD0m5Om-14" value="" style="html=1;points=[];perimeter=orthogonalPerimeter;outlineConnect=0;targetShapes=umlLifeline;portConstraint=eastwest;newEdgeStyle={&quot;edgeStyle&quot;:&quot;elbowEdgeStyle&quot;,&quot;elbow&quot;:&quot;vertical&quot;,&quot;curved&quot;:0,&quot;rounded&quot;:0};" vertex="1" parent="1">
          <mxGeometry x="380" y="610" width="10" height="80" as="geometry" />
        </mxCell>
        <mxCell id="BVbNrUToFaA7XdD0m5Om-15" value="dispatch" style="html=1;verticalAlign=bottom;endArrow=block;edgeStyle=elbowEdgeStyle;elbow=vertical;curved=0;rounded=0;" edge="1" target="BVbNrUToFaA7XdD0m5Om-14" parent="1">
          <mxGeometry relative="1" as="geometry">
            <mxPoint x="310" y="610" as="sourcePoint" />
          </mxGeometry>
        </mxCell>
        <mxCell id="BVbNrUToFaA7XdD0m5Om-16" value="return" style="html=1;verticalAlign=bottom;endArrow=open;dashed=1;endSize=8;edgeStyle=elbowEdgeStyle;elbow=vertical;curved=0;rounded=0;" edge="1" source="BVbNrUToFaA7XdD0m5Om-14" parent="1">
          <mxGeometry relative="1" as="geometry">
            <mxPoint x="310" y="685" as="targetPoint" />
          </mxGeometry>
        </mxCell>
      </root>
    </mxGraphModel>
  </diagram>
</mxfile>
